Coordinates
version=1
nRows=27
nColumns=38
inDegrees=no

Units are S.I. units (second, meters, Newtons, ...)
If the header above contains a line with 'inDegrees', this indicates whether rotational values are in degrees (yes) or radians (no).

endheader
time	pelvis_tilt	pelvis_list	pelvis_rotation	pelvis_tx	pelvis_ty	pelvis_tz	hip_flexion_r	hip_adduction_r	hip_rotation_r	knee_angle_r	ankle_angle_r	subtalar_angle_r	mtp_angle_r	hip_flexion_l	hip_adduction_l	hip_rotation_l	knee_angle_l	ankle_angle_l	subtalar_angle_l	mtp_angle_l	lumbar_extension	lumbar_bending	lumbar_rotation	arm_flex_r	arm_add_r	arm_rot_r	elbow_flex_r	pro_sup_r	wrist_flex_r	wrist_dev_r	arm_flex_l	arm_add_l	arm_rot_l	elbow_flex_l	pro_sup_l	wrist_flex_l	wrist_dev_l
2.18	0.894063	1.35956	-2.29944	0.478997	-0.243383	0.892628	-0.349824	-0.185246	-0.575575	0.467213	0.0350462	0	0	0.177593	0.254349	0.0281258	0.268782	-0.194325	0	0	-0.130476	-0.083131	0.185586	-0.287458	-0.686821	-0.151531	1.66116	0.610879	0	0	0.714813	-0.608719	1.08661	1.13611	0.395845	0	0
2.19	0.944338	1.36346	-2.34823	0.481338	-0.254425	0.891228	-0.329881	-0.206979	-0.582841	0.528555	0.038729	0	0	0.183571	0.264018	0.0397491	0.276554	-0.212527	0	0	-0.116237	-0.0887181	0.184207	-0.292984	-0.68071	-0.153985	1.66018	0.62295	0	0	0.71005	-0.609978	1.08466	1.13728	0.405191	0	0
2.2	0.976903	1.36482	-2.37998	0.48362	-0.265293	0.890412	-0.314507	-0.225625	-0.581137	0.582338	0.0216921	0	0	0.186957	0.270747	0.0473621	0.289769	-0.228915	0	0	-0.10701	-0.0923926	0.184557	-0.299528	-0.681347	-0.154141	1.6605	0.619022	0	0	0.710235	-0.609091	1.09005	1.13634	0.398042	0	0
2.21	1.03072	1.36907	-2.43087	0.486193	-0.276038	0.889276	-0.288661	-0.247869	-0.5796	0.648216	-0.00230905	0	0	0.201592	0.278713	0.0649229	0.322505	-0.225248	0	0	-0.0925086	-0.0972707	0.182053	-0.304606	-0.679352	-0.153869	1.65873	0.620255	0	0	0.708636	-0.611277	1.09449	1.13898	0.396312	0	0
2.22	1.07484	1.37145	-2.47292	0.488524	-0.286653	0.888735	-0.263564	-0.268686	-0.569599	0.711457	-0.0306761	0	0	0.213256	0.285496	0.0805737	0.35588	-0.22196	0	0	-0.0810391	-0.100937	0.182588	-0.312166	-0.676247	-0.157478	1.65798	0.620959	0	0	0.707813	-0.608128	1.09771	1.1357	0.395843	0	0
2.23	1.11258	1.37187	-2.50858	0.490688	-0.297095	0.888536	-0.237813	-0.290147	-0.555951	0.776243	-0.0655744	0	0	0.220894	0.293358	0.0982683	0.386815	-0.214278	0	0	-0.0728373	-0.105846	0.181862	-0.317144	-0.673678	-0.159209	1.65671	0.622118	0	0	0.708203	-0.607988	1.10209	1.13601	0.394687	0	0
2.24	1.14194	1.37069	-2.5358	0.492673	-0.30737	0.888599	-0.211476	-0.311501	-0.539602	0.841454	-0.106273	0	0	0.223913	0.302014	0.116086	0.414051	-0.20027	0	0	-0.0673169	-0.111175	0.180734	-0.320765	-0.671646	-0.160081	1.65535	0.622661	0	0	0.709774	-0.608212	1.10706	1.13644	0.39331	0	0
2.25	1.15568	1.36704	-2.54841	0.494283	-0.31746	0.889018	-0.18622	-0.332334	-0.5208	0.905418	-0.136535	0	0	0.220534	0.309957	0.125937	0.434236	-0.191243	0	0	-0.0667471	-0.117098	0.180079	-0.322733	-0.67026	-0.160388	1.65438	0.621316	0	0	0.712927	-0.608959	1.11192	1.13735	0.392532	0	0
2.26	1.3259	1.3664	-2.72093	0.495893	-0.327226	0.884908	-0.0665586	-0.384833	-0.465575	1.08904	-0.182794	0	0	0.258542	0.334835	0.143548	0.474334	-0.161616	0	0	-0.0304612	-0.137727	0.187643	-0.331074	-0.666869	-0.161893	1.65623	0.618566	0	0	0.718657	-0.614218	1.12615	1.14249	0.384656	0	0
2.27	1.18065	1.36062	-2.57123	0.497593	-0.337097	0.889754	-0.127486	-0.37317	-0.486961	1.02754	-0.254208	0	0	0.213118	0.325528	0.137426	0.475004	-0.15508	0	0	-0.066535	-0.127353	0.177828	-0.325543	-0.669664	-0.161007	1.65427	0.617936	0	0	0.719705	-0.611764	1.12186	1.14138	0.385512	0	0
2.28	1.16679	1.35532	-2.55778	0.499012	-0.346826	0.890723	-0.103673	-0.390311	-0.471979	1.07973	-0.327211	0	0	0.19969	0.328659	0.128563	0.484929	-0.142572	0	0	-0.0726242	-0.130451	0.176889	-0.325145	-0.670416	-0.16111	1.6552	0.615406	0	0	0.722206	-0.612018	1.12353	1.14178	0.384492	0	0
2.29	1.15124	1.35031	-2.54201	0.500384	-0.356551	0.891742	-0.0807737	-0.405599	-0.45887	1.13014	-0.352726	0	0	0.184059	0.330405	0.120978	0.492155	-0.130976	0	0	-0.0790925	-0.132994	0.173601	-0.322493	-0.669191	-0.161076	1.65582	0.62049	0	0	0.721262	-0.614138	1.11933	1.14381	0.394734	0	0
2.3	1.11705	1.34306	-2.50914	0.501394	-0.366227	0.89326	-0.0636495	-0.418381	-0.446233	1.17481	-0.394918	0	0	0.16083	0.329136	0.107881	0.491728	-0.126184	0	0	-0.090815	-0.134921	0.171303	-0.318579	-0.676811	-0.154153	1.65715	0.59994	0	0	0.728679	-0.618295	1.13031	1.14797	0.373928	0	0
2.31	1.08503	1.33715	-2.47832	0.50232	-0.375846	0.894871	-0.0452726	-0.42873	-0.434973	1.21809	-0.413035	0	0	0.137863	0.326468	0.0989569	0.490009	-0.119331	0	0	-0.101213	-0.135096	0.16834	-0.314468	-0.678966	-0.150387	1.65823	0.596542	0	0	0.730009	-0.620558	1.13051	1.14918	0.37093	0	0
2.32	1.0534	1.33237	-2.44729	0.503237	-0.385301	0.896649	-0.0266681	-0.436841	-0.425246	1.25797	-0.414432	0	0	0.115196	0.322611	0.0940202	0.487262	-0.115422	0	0	-0.11081	-0.133981	0.164338	-0.309352	-0.680065	-0.146293	1.65815	0.594459	0	0	0.730239	-0.622703	1.12986	1.14974	0.36947	0	0
2.33	1.02101	1.32785	-2.41515	0.504104	-0.394644	0.898657	-0.00927366	-0.442948	-0.415721	1.29338	-0.397107	0	0	0.0918103	0.317694	0.0885161	0.482361	-0.113365	0	0	-0.120325	-0.131806	0.160505	-0.30435	-0.681048	-0.142703	1.65741	0.592579	0	0	0.729912	-0.623231	1.12853	1.14812	0.368731	0	0
2.34	0.987835	1.32354	-2.38209	0.504911	-0.403984	0.900828	0.00686397	-0.447123	-0.406495	1.3244	-0.363289	0	0	0.0675454	0.311848	0.0809703	0.475708	-0.112537	0	0	-0.129799	-0.128588	0.15712	-0.30009	-0.682162	-0.139893	1.65663	0.589652	0	0	0.728903	-0.622729	1.12633	1.14556	0.368699	0	0
2.35	0.953469	1.31945	-2.34739	0.505642	-0.413378	0.903077	0.0218013	-0.449745	-0.398713	1.35057	-0.32708	0	0	0.0418986	0.305013	0.0722032	0.467127	-0.111944	0	0	-0.139523	-0.125042	0.152729	-0.295108	-0.682813	-0.136573	1.6553	0.586097	0	0	0.727657	-0.624471	1.1241	1.14605	0.368495	0	0
2.36	0.921431	1.31668	-2.31407	0.506442	-0.422764	0.905249	0.0372442	-0.450424	-0.39261	1.37127	-0.30139	0	0	0.0170488	0.297684	0.0656938	0.458452	-0.110737	0	0	-0.147131	-0.119781	0.149573	-0.293362	-0.682958	-0.135691	1.65486	0.584937	0	0	0.72711	-0.622928	1.12297	1.14301	0.368101	0	0
2.37	0.89	1.31454	-2.2808	0.507335	-0.43202	0.907317	0.0527411	-0.449135	-0.387238	1.38584	-0.283039	0	0	-0.00712408	0.290031	0.0611931	0.449701	-0.108212	0	0	-0.154273	-0.113836	0.146066	-0.291791	-0.683698	-0.134308	1.65418	0.587461	0	0	0.725931	-0.621727	1.12073	1.14121	0.369783	0	0
2.38	0.862846	1.31411	-2.25134	0.508362	-0.441168	0.909097	0.0709563	-0.446551	-0.381572	1.39551	-0.274401	0	0	-0.0278521	0.282408	0.059824	0.443449	-0.104027	0	0	-0.15916	-0.107601	0.141562	-0.289087	-0.683549	-0.132915	1.65217	0.591743	0	0	0.723719	-0.622202	1.11736	1.14192	0.373796	0	0
2.39	0.82999	1.31265	-2.21715	0.509241	-0.450259	0.910863	0.0881655	-0.442615	-0.374734	1.39978	-0.265606	0	0	-0.0502657	0.273268	0.0526366	0.433532	-0.106127	0	0	-0.165376	-0.100411	0.138213	-0.285827	-0.692712	-0.124617	1.65097	0.574491	0	0	0.724387	-0.622567	1.11914	1.14263	0.363237	0	0
2.4	0.803517	1.31231	-2.18791	0.510173	-0.459226	0.912381	0.106731	-0.438785	-0.369492	1.39944	-0.259076	0	0	-0.0695699	0.26475	0.0494359	0.426208	-0.105518	0	0	-0.169845	-0.0936702	0.13351	-0.282792	-0.695049	-0.122062	1.64944	0.572295	0	0	0.723101	-0.622934	1.11693	1.14323	0.361075	0	0
2.41	0.780444	1.31165	-2.16172	0.511081	-0.468073	0.913759	0.124463	-0.435141	-0.365652	1.39508	-0.24977	0	0	-0.0882172	0.256766	0.0467194	0.419281	-0.104942	0	0	-0.174601	-0.088251	0.128204	-0.279569	-0.696791	-0.119603	1.6482	0.570827	0	0	0.723036	-0.625248	1.11644	1.14665	0.360222	0	0
2.42	0.758871	1.31101	-2.13705	0.511968	-0.476854	0.914987	0.14134	-0.431189	-0.363469	1.38643	-0.235562	0	0	-0.106507	0.248873	0.0435376	0.412019	-0.103888	0	0	-0.178838	-0.0827528	0.124185	-0.278276	-0.697742	-0.119875	1.6476	0.56776	0	0	0.724603	-0.625312	1.11739	1.14752	0.359093	0	0
2.43	0.739921	1.3102	-2.11507	0.512796	-0.485515	0.916027	0.157893	-0.427843	-0.362418	1.37451	-0.21972	0	0	-0.124038	0.241543	0.0413006	0.406218	-0.101691	0	0	-0.182749	-0.0778897	0.120795	-0.277591	-0.69823	-0.121086	1.64735	0.564781	0	0	0.727143	-0.624275	1.11896	1.14698	0.35797	0	0
2.44	0.722539	1.30894	-2.09488	0.513544	-0.494128	0.916933	0.173673	-0.425156	-0.36278	1.35924	-0.205078	0	0	-0.141646	0.234701	0.0400244	0.400977	-0.0991137	0	0	-0.186939	-0.0737472	0.117644	-0.277097	-0.698782	-0.122181	1.64747	0.562774	0	0	0.729795	-0.62338	1.12029	1.14669	0.357241	0	0
